# xmcd
#
# Track frame offsets: 
#        150
#        2372
#        14987
#        25275
#        43545
#        60930
#        73552
#        82377
#        93687
#        103230
#        113232
#        124107
#        143367
#        172177
#        185742
#        199320
#        211952
#        219872
#        232495
#        250752
#
# Disc length: 3389 seconds
#
# Revision: 8
# Processed by: cddbd v1.5.2PL0 Copyright (c) Steve Scherf et al.
# Submitted via: ExactAudioCopy v1.3
#
DISCID=2a0d3b14
DTITLE=Schubert Chor Bremen and Camerata Baroque Ensemble Brandenburg and 
DTITLE=Brandenburger Symphoniker - Frohe Weihnacht
DYEAR=1997
DGENRE=Blues
TTITLE0=Glockengeläut
TTITLE1=Oh, du fröhliche
TTITLE2=Morgen Kinder wird's was geben
TTITLE3=Oh Heiland, reiß die Himmel auf
TTITLE4=Macht hoch die Tür, die Tor macht weit
TTITLE5=Es ist für uns eine Zeit gekommen - Tango Argentino
TTITLE6=Leise rieselt der Schnee
TTITLE7=Vom Himmel hoch, da komm' ich her
TTITLE8=Ihr Kinderlein kommet
TTITLE9=Kommet ihr Hirten
TTITLE10=Was soll das bedeuten
TTITLE11=Es ist ein Ros' entsprungen
TTITLE12=Ave Maria
TTITLE13=Kling Glöckchen, klingelingeling
TTITLE14=Am Weihnachtsbaume die Lichter brennen
TTITLE15=Schwedische Weihnacht - O Tannenbaum
TTITLE16=Alle Jahre wieder
TTITLE17=Süßer die Glocken nie klingen
TTITLE18=Stille Nacht, Heilige Nacht
TTITLE19=Glockengeläut
EXTD=YEAR: 1997
EXTT0=
EXTT1=
EXTT2=
EXTT3=
EXTT4=
EXTT5=
EXTT6=
EXTT7=
EXTT8=
EXTT9=
EXTT10=
EXTT11=
EXTT12=
EXTT13=
EXTT14=
EXTT15=
EXTT16=
EXTT17=
EXTT18=
EXTT19=
PLAYORDER=
